HIERARCHY
ROOT Hips
{
  OFFSET 0.0 0.0 0.0
  CHANNELS 6 XPOSITION YPOSITION ZPOSITION ZROTATION XROTATION YROTATION 
  JOINT LeftUpLeg
  {
    OFFSET 0.08945800000000001 -0.0866707 0.0010165200000000001
    CHANNELS 3 ZROTATION XROTATION YROTATION 
    JOINT LeftLeg
    {
      OFFSET 0.0 -0.444227 0.013727000000000001
      CHANNELS 3 ZROTATION XROTATION YROTATION 
      JOINT LeftFoot
      {
        OFFSET -0.0025354900000000005 -0.42092399999999996 -0.014605900000000002
        CHANNELS 3 ZROTATION XROTATION YROTATION 
        End Site
        {
          OFFSET -0.0004 -0.0441509 0.08499100000000001
        }
      }
    }
  }
  JOINT Spine
  {
    OFFSET 0.0 0.118905 0.0
    CHANNELS 3 ZROTATION XROTATION YROTATION 
    JOINT Spine1
    {
      OFFSET 0.0 0.25657399999999997 0.00127663
      CHANNELS 3 ZROTATION XROTATION YROTATION 
      End Site
      {
        OFFSET -0.0029 0.21508359999999999 0.02525291
      }
      JOINT RightArm
      {
        OFFSET -0.162727 -0.05365632 0.0010212299999999997
        CHANNELS 3 ZROTATION XROTATION YROTATION 
        JOINT RightForeArm
        {
          OFFSET -0.26364 0.00099144 -0.0142434
          CHANNELS 3 ZROTATION XROTATION YROTATION 
          End Site
          {
            OFFSET -0.220324 0.0008536199999999999 0.010221599999999999
          }
        }
      }
      JOINT LeftArm
      {
        OFFSET 0.162727 -0.053656319900000006 0.0010212299999999997
        CHANNELS 3 ZROTATION XROTATION YROTATION 
        JOINT LeftForeArm
        {
          OFFSET 0.26259699999999997 0.00099144 -0.0142434
          CHANNELS 3 ZROTATION XROTATION YROTATION 
          End Site
          {
            OFFSET 0.220902 0.0008536199999999999 0.010221599999999999
          }
        }
      }
    }
  }
  JOINT RightUpLeg
  {
    OFFSET -0.08945800000000001 -0.0866707 0.0010165200000000001
    CHANNELS 3 ZROTATION XROTATION YROTATION 
    JOINT RightLeg
    {
      OFFSET 0.0 -0.444227 0.013727000000000001
      CHANNELS 3 ZROTATION XROTATION YROTATION 
      JOINT RightFoot
      {
        OFFSET 0.0025354900000000005 -0.42092399999999996 -0.014605900000000002
        CHANNELS 3 ZROTATION XROTATION YROTATION 
        End Site
        {
          OFFSET 0.0004 -0.0441509 0.08499100000000001
        }
      }
    }
  }
}
MOTION
Frames: 8
Frame Time: 0.033333
0.472314 1.03766812108325 -0.00342681 0.4232480131650462 0.875590017512555 -87.18190060387676 0.18029399556074072 -2.694669923572114 4.685770171590854 1.6931399689443978 12.391199418642902 14.3086000045265 -3.766122765889072 -5.404355591147678 -0.010823675379714914 2.8857598335288532 -14.196599416290278 0.5150709686130084 -2.9631298685692307 23.677699408853574 1.1637999881032923 80.51713861556172 -24.62351497681297 8.54647142069074 6.829739658187999 27.277099818423576 9.065330156085343 -82.57692559375162 -10.4691192994042 -12.605490627436529 -13.204100359127494 12.384499856840767 -11.232900080698998 -0.1801550038791736 -5.904869719092097 -4.920140002110202 -1.2517099655283512 12.162599817311746 -9.741449728251258 3.021000353859456 -2.7676985196213018 -0.19337298072809533 
0.47175600000000006 1.0377181210832498 -0.00298599 0.4177469894796885 0.9174849037775323 -87.08049961545875 0.19282399093334235 -2.659049846720263 4.687330442929379 1.7149499369030121 12.378700172461778 14.22640038541269 -3.74790280939124 -5.43365539513974 -0.010824173136420784 2.799919937030837 -14.145199681464993 0.4811160171756123 -2.8328600184071044 23.72200172335757 1.0962899714600631 80.42745140157028 -24.783455809059866 8.350393765092598 6.813050090951073 27.57119922634786 8.898739280907792 -82.65763793917367 -11.678853376892885 -12.439762063641693 -13.322200306292538 13.489200139046643 -10.555600593353962 -0.1542790056313522 -5.790999793457406 -4.925280146347459 -1.2570498927988318 12.034999077011214 -9.850459547404661 3.0127285678877476 -2.729678271606426 -0.19336712437449058 
0.47077199999999997 1.0377981210832496 -0.00213621 0.4683939894336702 1.0354499547064688 -86.90180137620371 0.2585779952894303 -2.686479886427034 4.696429962451128 1.7522399950069314 12.401200523135094 14.041299697584405 -3.7027821528473126 -5.504155753978965 -0.010825404604853903 2.753110089327801 -14.11920056638934 0.41782300201463135 -2.7461900404815203 23.819301183178986 1.0083798873132985 80.43687706262489 -25.137652343943802 8.11335546504189 6.815669895384596 27.943299394593694 8.536840000187375 -82.66902386452008 -13.647853480634991 -12.140774801592617 -13.543100576881798 15.39830119131503 -9.408659859999789 -0.06443859930137211 -5.642020134167911 -4.8902498136417565 -1.2644099552380494 11.776100756521881 -10.078799601547358 3.028365645662257 -2.6482984886364282 -0.1933546646153406 
0.46980600000000006 1.0378381210832497 -0.00110497 0.6019279763279747 1.1687499542608475 -86.76730129106781 0.33136201186939357 -2.8164302118020506 4.707979812337619 1.7739899853668966 12.456200621426621 13.876199511193212 -3.6595321143623223 -5.592205430116892 -0.010827092141826573 2.8359099113149266 -14.245099735812893 0.39279300006875273 -2.8889898726760346 24.020699556140567 1.0227099443571026 80.59194284735169 -25.432504780224082 7.958273458615812 6.827399891510447 27.98629885051351 8.260909749228968 -82.60815321863693 -15.254930397994583 -11.905082902582048 -13.773400041542642 17.10930114444366 -8.374720337595244 0.006987480289068078 -5.594099953837925 -4.857140044753297 -1.2383799975894252 11.531500583286322 -10.253999930173709 3.0923527787976406 -2.5766384917421816 -0.19334285852663852 
0.46903100000000003 1.0378281210832498 0.00010414400000000001 0.7804890248302363 1.2306300807589878 -86.71520060807896 0.32657199486837835 -2.9859401390761344 4.696029542611036 1.7471199144503606 12.496900011143435 13.831899758010154 -3.5880418049802683 -5.662825317266593 -0.010828319441443059 2.9347600375213476 -14.448699991008157 0.4227120033977589 -3.1268900572226332 24.2367999112906 1.1279799147748066 80.72037089431544 -25.551085401951966 7.829598671068296 6.803860071422821 27.90029993867388 8.207719651067494 -82.66744609082181 -16.430486208876527 -11.770441091020878 -13.93659972779728 18.34899926182119 -7.628720246257282 -0.057338097390828166 -5.679749672256238 -4.923509846691957 -1.1527200338873564 11.434400052724483 -10.243699151131683 3.165472515183566 -2.5718782767775057 -0.19334300526898396 
0.468415 1.0377481210832498 0.0015013099999999998 0.94277101113686 1.225110007249148 -86.67409652965382 0.24804597699140288 -3.1448099122838076 4.647119838625044 1.6817000424148612 12.542200387039898 13.863999939561921 -3.449981483739508 -5.717345594768927 -0.010829368315707693 2.8808198992116414 -14.532798402711231 0.4429929961580688 -3.1307098405159626 24.293598056881134 1.1648999687247816 80.67267568334124 -25.5668853370495 7.719169026341175 6.779500201747971 28.019100834002494 8.206210179260921 -82.86262557654409 -17.311230564613208 -11.581748577462815 -13.974300664468458 19.07659882353514 -7.2423099779266265 -0.2154170027277016 -5.824879666174785 -5.054499641481285 -1.0715499590692192 11.478899588940761 -10.1522002294629 3.2156543419024723 -2.615628413175788 -0.19334951529303665 
0.467879 1.03763812108325 0.0029733 1.047100016274689 1.2400199900421687 -86.57999701345855 0.18317500136916384 -3.3026698847113773 4.568089854172943 1.6410198626050885 12.686699869120687 13.865599911374998 -3.3021311535405924 -5.798395180781237 -0.010830949964737907 2.6920400872982477 -14.446599707838377 0.4123740051608421 -2.824249924628069 24.20050087094657 1.0582799687289421 80.49902495388284 -25.529283438121283 7.701410534499143 6.8251301342718875 28.160999721556802 8.133950192936771 -82.93406252507326 -17.251688390523622 -11.222585641278632 -13.871399595753985 18.806299209773762 -7.4752100371139525 -0.2930539887748779 -5.927689807995932 -5.090899854002398 -1.0995399675662256 11.551300447916544 -10.18729971783395 3.2830952028803555 -2.640198311167616 -0.1933525968822911 
0.467375 1.0374781210832498 0.00446664 1.0889999184598382 1.3166699737336385 -86.46770187331437 0.16375399879446725 -3.4689401678847593 4.465159757154496 1.6625299425704567 12.967100478890867 13.83879995661916 -3.219330691223232 -5.923155843047513 -0.010833327023981524 2.590039963223981 -14.332699473239245 0.3839890196307385 -2.5653300463541675 24.153000320363716 0.9586049904585363 80.4016606072643 -25.437345676798326 7.795291484640968 6.884329945129326 28.03539937290944 8.14397008044918 -82.69341447004619 -15.619213414735336 -10.801059662877648 -13.69399994621489 17.14450052433132 -8.439350148842843 -0.2373350130732064 -5.960739812729154 -4.987650018753431 -1.234600021492352 11.603600060164977 -10.355099536494592 3.4003151228595256 -2.636568279067166 -0.19335249016058528 
